<svg width="180" height="180" viewBox="0 0 180 180" fill="none" xmlns="http://www.w3.org/2000/svg">
<path d="M28.125 69.75V90C28.125 109.125 55.125 123.75 90 123.75C124.875 123.75 151.875 109.125 151.875 90V69.75C139.5 82.125 117 90 90 90C63 90 40.5 82.125 28.125 69.75Z" fill="black"/>
<path d="M28.125 114.75V135C28.125 154.125 55.125 168.75 90 168.75C124.875 168.75 151.875 154.125 151.875 135V114.75C139.5 127.125 117 135 90 135C63 135 40.5 127.125 28.125 114.75Z" fill="black"/>
<path d="M90 78.75C124.173 78.75 151.875 63.6396 151.875 45C151.875 26.3604 124.173 11.25 90 11.25C55.8274 11.25 28.125 26.3604 28.125 45C28.125 63.6396 55.8274 78.75 90 78.75Z" fill="black"/>
</svg>
