<svg width="180" height="180" viewBox="0 0 180 180" fill="none" xmlns="http://www.w3.org/2000/svg">
<path d="M96.1875 90C96.1875 75.4988 107.651 63.7538 121.781 63.7538C135.922 63.7538 147.375 75.4875 147.375 90C147.375 104.501 135.922 116.246 121.781 116.246C107.662 116.246 96.1875 104.513 96.1875 90Z" fill="#1ABCFE"/>
<path d="M45 142.504C45 128.002 56.4638 116.246 70.5938 116.246H96.1875V142.504C96.1875 156.994 84.7238 168.75 70.5938 168.75C56.4638 168.75 45 156.994 45 142.504Z" fill="#0ACF83"/>
<path d="M96.1875 11.25V63.7537H121.781C135.922 63.7537 147.375 51.9975 147.375 37.4963C147.375 23.0062 135.922 11.25 121.781 11.25H96.1875Z" fill="#FF7262"/>
<path d="M45 37.4963C45 51.9975 56.4638 63.7537 70.5938 63.7537H96.1875V11.25H70.5938C56.4638 11.25 45 23.0062 45 37.4963Z" fill="#F24E1E"/>
<path d="M45 90C45 104.501 56.4638 116.246 70.5938 116.246H96.1875V63.7538H70.5938C56.4638 63.7538 45 75.4875 45 90Z" fill="#A259FF"/>
</svg>
