<svg width="180" height="180" viewBox="0 0 180 180" fill="none" xmlns="http://www.w3.org/2000/svg">
<path d="M90 0C39.375 0 0 39.375 0 90C0 149.062 53.4375 174.375 61.875 174.375C67.5 174.375 67.5 171.562 67.5 168.75V154.688C47.8125 160.312 39.375 149.062 36.5625 140.625C36.5625 140.625 36.5625 137.812 30.9375 132.188C28.125 129.375 16.875 123.75 28.125 123.75C36.5625 123.75 42.1875 135 42.1875 135C50.625 146.25 61.875 143.438 67.5 140.625C67.5 135 73.125 129.375 73.125 129.375C50.625 126.562 33.75 118.125 33.75 87.1875C33.75 75.9375 36.5625 67.5 42.1875 61.875C42.1875 61.875 36.5625 50.625 42.1875 36.5625C42.1875 36.5625 56.25 36.5625 67.5 47.8125C75.9375 42.1875 104.062 42.1875 112.5 47.8125C123.75 36.5625 137.812 36.5625 137.812 36.5625C143.438 56.25 137.812 61.875 137.812 61.875C143.438 67.5 146.25 75.9375 146.25 87.1875C146.25 118.125 126.562 126.562 106.875 129.375C109.688 132.188 112.5 137.812 112.5 146.25V168.75C112.5 171.562 112.5 174.375 118.125 174.375C126.562 174.375 180 149.062 180 90C180 39.375 140.625 0 90 0Z" fill="black"/>
</svg>
