<svg width="180" height="180" viewBox="0 0 180 180" fill="none" xmlns="http://www.w3.org/2000/svg">
<g clip-path="url(#clip0_72_300)">
<path d="M180 0H0V180H180V0Z" fill="#FFCA28"/>
<path d="M109.625 146.889L121.765 138.786C122.717 141.801 128.742 148.962 136.352 148.962C143.962 148.962 147.495 144.769 147.495 141.99C147.495 134.415 139.724 131.745 135.992 130.462C135.383 130.253 134.882 130.081 134.54 129.93C134.364 129.853 134.098 129.75 133.757 129.619C129.606 128.02 114.291 122.118 114.291 105.01C114.291 86.1669 132.32 84 136.397 84C139.064 84 151.889 84.3297 158.276 96.4363L146.498 104.728C143.917 99.4513 139.627 97.7086 136.986 97.7086C130.463 97.7086 129.104 102.532 129.104 104.728C129.104 110.889 136.191 113.65 142.175 115.981C143.741 116.591 145.23 117.172 146.498 117.776C153.021 120.885 162.625 125.973 162.625 141.99C162.625 150.012 155.954 163 139.16 163C116.601 163 110.621 149.339 109.625 146.889Z" fill="#3E3E3E"/>
<path d="M50.625 148.539L63.2486 140.463C64.2374 143.468 68.0814 149.009 73.6579 149.009C79.2351 149.009 82.0897 143.234 82.0897 140.463V86H97.6144V140.463C97.8658 147.976 93.7334 163 75.495 163C58.7266 163 51.7555 152.953 50.625 148.539Z" fill="#3E3E3E"/>
</g>
<defs>
<clipPath id="clip0_72_300">
<rect width="180" height="180" fill="white"/>
</clipPath>
</defs>
</svg>
