<svg width="180" height="137" viewBox="0 0 180 137" fill="none" xmlns="http://www.w3.org/2000/svg">
<g clip-path="url(#clip0_83_86)">
<path d="M106.544 58.8318C106.544 123.465 106.461 120.914 109.015 126.55C111.115 131.158 114.328 133.873 119.723 135.56C122.77 136.506 135.784 136.959 160.618 136.959L179.851 137V125.686V114.372L155.47 114.29L131.048 114.167L130.925 57.0628L130.842 0H118.693H106.544V58.8318ZM126.847 30.321C127.012 44.7616 127.136 70.5159 127.136 87.5072V118.486H151.434H175.733V125.974V133.421L151.681 133.133C121.246 132.804 118.94 132.516 115.357 128.977C113.174 126.797 112.062 124.658 111.033 120.667C110.292 117.623 110.25 115.565 110.25 60.8066V4.11412H118.405H126.6L126.847 30.321Z" fill="black"/>
<path d="M49.1332 0.740509C49.0097 0.946213 45.5914 10.3264 41.5142 21.6402C37.4781 32.9129 26.3996 63.3573 16.9685 89.2351C7.53734 115.113 -0.0817065 136.342 0.00066161 136.465C0.124214 136.547 5.80761 136.671 12.6442 136.712L25.1229 136.794L28.6236 127.126C30.518 121.819 33.7304 112.85 35.7072 107.214C37.7252 101.619 39.4138 96.9696 39.4962 96.8874C39.5785 96.8051 49.7098 96.6817 62.065 96.6405L84.5103 96.4759L91.7175 116.635L98.9247 136.794L100.902 136.918C101.972 137 102.837 136.877 102.837 136.712C102.837 136.013 91.9646 105.362 88.011 94.9126L87.1461 92.5675H70.5489C61.4061 92.5675 50.0393 92.691 45.3031 92.8555L36.6133 93.1024L29.5296 113.015L22.4048 132.886H14.5386C10.2143 132.886 6.42537 132.721 6.13708 132.557C5.72524 132.269 5.80761 131.734 6.42537 129.965C7.24905 127.867 39.5373 38.8783 47.9801 15.5513L51.9749 4.5255H61.8591H71.7433L72.6493 6.87053C73.1435 8.18706 77.1796 18.966 81.5863 30.8558C85.9929 42.7456 91.0174 56.2399 92.7471 60.8889C94.4769 65.5378 97.195 72.7786 98.7188 77.0162C102.796 88.1243 102.796 88.1243 102.837 82.0354V77.0573L99.3778 67.8417C97.4833 62.7813 91.1409 45.7489 85.334 30.033C79.527 14.3171 74.4614 1.19305 74.0908 0.905075C73.3494 0.329102 49.5039 0.164536 49.1332 0.740509Z" fill="black"/>
<path d="M56.011 35.4637C53.7459 42.3342 49.5863 54.6354 46.7858 62.8225C43.9852 71.0096 41.8437 77.839 42.0084 78.0447C42.3791 78.415 80.7214 78.7853 81.6687 78.415C82.0805 78.2504 80.845 74.2186 76.6854 62.0408C73.6789 53.1544 69.437 40.7297 67.3366 34.4763L63.5065 23.0802L61.8591 23.039H60.2118L56.011 35.4637ZM66.1834 43.4039C68.2427 49.4928 71.4138 58.7495 73.2259 63.9333C74.9968 69.1171 76.4795 73.6015 76.4795 73.8895C76.4795 74.3832 73.8849 74.4655 61.6532 74.4655H46.8681L47.4859 72.6964C47.8565 71.7501 51.1101 62.2877 54.6931 51.6733C58.3173 41.1 61.3649 32.2135 61.4885 32.0078C61.6532 31.8021 61.9003 31.761 62.065 31.9667C62.2298 32.1312 64.0831 37.2739 66.1834 43.4039Z" fill="black"/>
</g>
<defs>
<clipPath id="clip0_83_86">
<rect width="180" height="137" fill="white"/>
</clipPath>
</defs>
</svg>
