<svg width="180" height="180" viewBox="0 0 180 180" fill="none" xmlns="http://www.w3.org/2000/svg">
<path d="M90 179.666C87.5242 179.666 85.2133 179.006 83.0676 177.85L61.1148 164.811C57.8137 162.995 59.4642 162.335 60.4546 162.005C64.9112 160.519 65.7365 160.189 70.3581 157.548C70.8533 157.218 71.5135 157.383 72.0087 157.713L88.8446 167.782C89.5049 168.112 90.3302 168.112 90.8253 167.782L156.684 129.653C157.344 129.323 157.674 128.663 157.674 127.838V51.7458C157.674 50.9205 157.344 50.2603 156.684 49.9302L90.8253 11.9667C90.1651 11.6366 89.3398 11.6366 88.8446 11.9667L22.9863 49.9302C22.3261 50.2603 21.996 51.0856 21.996 51.7458V127.838C21.996 128.498 22.3261 129.323 22.9863 129.653L40.9777 140.052C50.7162 145.004 56.8233 139.227 56.8233 133.45V58.3481C56.8233 57.3578 57.6486 56.3674 58.804 56.3674H67.222C68.2123 56.3674 69.2027 57.1927 69.2027 58.3481V133.45C69.2027 146.489 62.1052 154.082 49.7258 154.082C45.9295 154.082 42.9584 154.082 34.5404 149.956L17.2093 140.052C12.9178 137.576 10.2769 132.954 10.2769 128.003V51.9109C10.2769 46.9591 12.9178 42.3375 17.2093 39.8616L83.0676 1.73311C87.194 -0.577704 92.806 -0.577704 96.9325 1.73311L162.791 39.8616C167.082 42.3375 169.723 46.9591 169.723 51.9109V128.003C169.723 132.954 167.082 137.576 162.791 140.052L96.9325 178.18C94.7867 179.171 92.3109 179.666 90 179.666ZM110.302 127.343C81.417 127.343 75.4749 114.138 75.4749 102.914C75.4749 101.924 76.3002 100.933 77.4556 100.933H86.0386C87.029 100.933 87.8543 101.593 87.8543 102.584C89.1747 111.332 92.9711 115.623 110.467 115.623C124.332 115.623 130.274 112.487 130.274 105.06C130.274 100.768 128.624 97.632 107.001 95.4863C89.0097 93.6706 77.7857 89.7092 77.7857 75.3491C77.7857 61.9794 89.0097 54.0566 107.826 54.0566C128.954 54.0566 139.352 61.3192 140.673 77.1648C140.673 77.66 140.508 78.1551 140.178 78.6503C139.848 78.9804 139.352 79.3105 138.857 79.3105H130.274C129.449 79.3105 128.624 78.6503 128.459 77.825C126.478 68.7468 121.361 65.7758 107.826 65.7758C92.641 65.7758 90.8253 71.0576 90.8253 75.019C90.8253 79.8057 92.9711 81.2912 113.438 83.9322C133.741 86.5731 143.314 90.3695 143.314 104.564C143.149 119.09 131.265 127.343 110.302 127.343Z" fill="#539E43"/>
</svg>
