<svg width="180" height="180" viewBox="0 0 180 180" fill="none" xmlns="http://www.w3.org/2000/svg">
<path d="M105.069 89.8644C105.069 81.7959 98.3227 75.2541 90 75.2541C81.6783 75.2541 74.9312 81.7959 74.9312 89.8644C74.9312 97.9341 81.6783 104.475 90 104.475C98.3227 104.475 105.069 97.9341 105.069 89.8644Z" fill="#53C1DE"/>
<path fill-rule="evenodd" clip-rule="evenodd" d="M138.94 62.7396C142.122 50.2019 146.122 26.9521 132.021 19.0696C117.986 11.2216 99.7223 26.2599 90.0782 35.2866C80.4623 26.3499 61.6854 11.3758 47.5967 19.2833C33.5672 27.1577 37.8936 50.022 41.1463 62.6383C28.0592 66.2422 5.625 74.0047 5.625 89.8644C5.625 105.679 28.0359 114.124 41.0455 117.725C37.7808 130.411 33.671 152.949 47.7184 160.806C61.8598 168.712 80.5781 154.094 90.3116 144.969C100.018 154.048 118.106 168.762 132.144 160.883C146.225 152.979 142.558 130.041 139.305 117.352C151.916 113.743 174.375 105.482 174.375 89.8644C174.375 74.1572 151.82 66.3317 138.94 62.7396ZM137.341 110.627C135.205 104.071 132.323 97.1004 128.796 89.8993C132.162 82.8681 134.933 75.987 137.009 69.4738C146.452 72.1282 167.167 78.1948 167.167 89.8644C167.167 101.644 147.288 107.768 137.341 110.627ZM128.531 154.834C118.058 160.712 102.499 146.641 95.3314 139.955C100.087 134.912 104.839 129.05 109.477 122.54C117.635 121.839 125.342 120.691 132.332 119.125C134.621 128.1 139.051 148.929 128.531 154.834ZM51.3204 154.75C40.8455 148.894 45.6333 128.782 48.0351 119.437C54.9469 120.92 62.5984 121.987 70.776 122.629C75.4442 128.999 80.334 134.854 85.2615 139.982C79.1736 145.692 61.8441 160.633 51.3204 154.75ZM12.8334 89.8644C12.8334 78.0412 33.4241 72.0186 43.0821 69.3709C45.1941 76.0303 47.9641 82.9935 51.3069 90.0349C47.9208 97.1809 45.1112 104.254 42.9798 110.992C33.7708 108.436 12.8334 101.695 12.8334 89.8644ZM51.2083 25.3324C61.7259 19.4296 78.0452 33.8053 85.0269 40.2757C80.1247 45.3799 75.2799 51.1909 70.6517 57.5241C62.7154 58.2373 55.118 59.3826 48.1336 60.9171C45.5133 50.7415 40.702 31.2288 51.2083 25.3324ZM114.634 65.1212C120.018 65.7799 125.176 66.6562 130.02 67.7284C128.566 72.2475 126.754 76.9731 124.619 81.8173C121.525 76.1248 118.203 70.5465 114.634 65.1212ZM90.0804 45.2706C93.4054 48.763 96.7354 52.6629 100.011 56.8941C93.3666 56.5892 86.7111 56.5881 80.0663 56.8896C83.3451 52.6977 86.7037 48.8035 90.0804 45.2706ZM55.4428 81.8122C53.3435 76.9849 51.5474 72.2385 50.0806 67.6547C54.8954 66.6101 60.03 65.7562 65.3794 65.1082C61.7996 70.5217 58.4837 76.0978 55.4428 81.8122ZM65.5329 115.12C60.0069 114.522 54.7946 113.711 49.9813 112.695C51.4712 108.031 53.3069 103.182 55.451 98.2507C58.5337 104.025 61.9003 109.655 65.5329 115.12ZM90.2801 134.952C86.8635 131.377 83.4553 127.424 80.127 123.171C86.8095 123.425 93.5049 123.426 100.187 123.137C96.9008 127.467 93.5826 131.426 90.2801 134.952ZM124.688 97.9999C126.943 102.985 128.845 107.807 130.355 112.393C125.462 113.475 120.179 114.347 114.613 114.995C118.209 109.466 121.584 103.801 124.688 97.9999ZM105.454 115.842C95.2318 116.55 84.9465 116.542 74.7214 115.9C68.9113 107.671 63.7391 99.0169 59.2746 90.0326C63.7177 81.0669 68.8523 72.4297 74.6348 64.2139C84.8672 63.4641 95.1626 63.4618 105.395 64.2184C111.128 72.4337 116.255 81.0484 120.801 89.9331C116.309 98.8942 111.147 107.549 105.454 115.842ZM128.42 25.1246C138.941 31.008 134.258 51.9033 131.96 60.9896C124.959 59.4231 117.356 58.2576 109.397 57.5331C104.759 51.1315 99.9551 45.3104 95.1322 40.2721C102.203 33.6623 118.002 19.2987 128.42 25.1246Z" fill="#53C1DE"/>
</svg>
