<svg width="180" height="180" viewBox="0 0 180 180" fill="none" xmlns="http://www.w3.org/2000/svg">
<path fill-rule="evenodd" clip-rule="evenodd" d="M90 11.25C105.575 11.25 120.801 15.8686 133.751 24.5218C146.702 33.1749 156.795 45.474 162.756 59.8637C168.716 74.2534 170.275 90.0874 167.237 105.363C164.198 120.639 156.698 134.671 145.685 145.685C134.671 156.698 120.639 164.198 105.363 167.237C90.0874 170.275 74.2534 168.716 59.8637 162.756C45.474 156.795 33.1749 146.702 24.5218 133.751C15.8686 120.801 11.25 105.575 11.25 90C11.25 69.1142 19.5469 49.0838 34.3153 34.3153C49.0838 19.5469 69.1142 11.25 90 11.25Z" fill="#CC6699"/>
<path d="M139.399 44.955C135.833 30.9713 112.641 26.3925 90.6921 34.1663C76.9463 38.7852 64.2465 46.0699 53.3196 55.6031C41.2315 66.9094 39.3021 76.7531 40.0952 80.865C42.9077 95.3775 62.7809 104.861 70.954 111.898V111.938C68.5465 113.124 50.9065 122.062 46.7665 131.175C42.4127 140.805 47.4583 147.713 50.8052 148.641C55.8302 149.85 61.1077 149.457 65.8975 147.515C70.6873 145.573 74.749 142.18 77.5127 137.813C79.7968 134.274 81.2258 130.252 81.6866 126.066C82.1474 121.879 81.6274 117.643 80.1677 113.693C84.1045 112.692 88.1967 112.457 92.2221 113.001C106.037 114.615 108.748 123.238 108.231 126.849C107.987 128.135 107.47 129.353 106.714 130.421C105.958 131.488 104.981 132.381 103.849 133.037C102.881 133.639 102.583 133.841 102.668 134.291C102.786 134.938 103.23 134.916 104.057 134.775C106.133 134.121 107.962 132.854 109.304 131.14C110.645 129.426 111.436 127.345 111.572 125.173C111.904 116.736 103.798 107.252 89.4434 107.494C85.2741 107.375 81.1137 107.945 77.1302 109.181C76.9334 108.956 76.7309 108.731 76.5227 108.506C67.6465 99.0394 51.244 92.34 51.9359 79.6106C52.189 74.9813 53.7977 62.7975 83.4359 48.015C107.736 35.9044 127.187 39.24 130.551 46.6256C135.355 57.1781 120.156 76.7813 94.9221 79.6106C92.1331 80.1768 89.2524 80.1078 86.4937 79.4086C83.735 78.7094 81.1692 77.3981 78.9865 75.5719C77.659 74.1094 77.4621 74.0475 76.9671 74.3175C76.1627 74.7619 76.6746 76.0556 76.9671 76.8206C77.9333 78.562 79.2376 80.0929 80.8033 81.3235C82.3691 82.5541 84.1648 83.4596 86.0852 83.9869C96.0065 86.1426 106.355 85.1192 115.661 81.0619C130.967 75.1613 142.903 58.7081 139.399 44.955ZM74.3515 116.229C75.4687 120.081 75.4119 124.178 74.1884 127.997C74.0571 128.394 73.9127 128.788 73.7552 129.178C73.5977 129.568 73.4271 129.943 73.2434 130.303C72.2967 132.24 71.0705 134.027 69.604 135.608C65.0309 140.597 58.6352 142.487 55.8959 140.895C52.9371 139.179 54.4165 132.143 59.7209 126.534C63.7966 122.504 68.4957 119.157 73.6371 116.623L74.3515 116.229Z" fill="white"/>
</svg>
