<svg width="180" height="180" viewBox="0 0 180 180" fill="none" xmlns="http://www.w3.org/2000/svg">
<g clip-path="url(#clip0_72_304)">
<path d="M0 90V180H90H180V90V0H90H0V90Z" fill="#007ACC"/>
<path d="M39.8048 90.5971L39.7477 97.9685L51.462 97.9685H63.1763V131.254L63.1763 164.54H71.462H79.7477V131.254V97.9685H91.462H103.176V90.7399C103.176 86.7399 103.091 83.3971 102.976 83.3113C102.891 83.1971 88.6334 83.1399 71.3477 83.1685L39.8906 83.2542L39.8048 90.5971Z" fill="white"/>
<path d="M145.242 83.0449C149.814 84.1878 153.299 86.2164 156.499 89.5307C158.156 91.3021 160.614 94.5307 160.814 95.3021C160.871 95.5307 153.042 100.788 148.299 103.731C148.128 103.845 147.442 103.102 146.671 101.959C144.356 98.5878 141.928 97.1307 138.214 96.8735C132.756 96.5021 129.242 99.3592 129.271 104.131C129.271 105.531 129.471 106.359 130.042 107.502C131.242 109.988 133.471 111.474 140.471 114.502C153.356 120.045 158.871 123.702 162.299 128.902C166.128 134.702 166.985 143.959 164.385 150.845C161.528 158.331 154.442 163.416 144.471 165.102C141.385 165.645 134.071 165.559 130.756 164.959C123.528 163.674 116.671 160.102 112.442 155.416C110.785 153.588 107.556 148.816 107.756 148.474C107.842 148.359 108.585 147.902 109.414 147.416C110.214 146.959 113.242 145.216 116.099 143.559L121.271 140.559L122.356 142.159C123.871 144.474 127.185 147.645 129.185 148.702C134.928 151.731 142.814 151.302 146.699 147.816C148.356 146.302 149.042 144.731 149.042 142.416C149.042 140.331 148.785 139.416 147.699 137.845C146.299 135.845 143.442 134.159 135.328 130.645C126.042 126.645 122.042 124.159 118.385 120.216C116.271 117.931 114.271 114.274 113.442 111.216C112.756 108.674 112.585 102.302 113.128 99.7307C115.042 90.7592 121.814 84.5021 131.585 82.6449C134.756 82.0449 142.128 82.2735 145.242 83.0449Z" fill="white"/>
</g>
<defs>
<clipPath id="clip0_72_304">
<rect width="180" height="180" fill="white"/>
</clipPath>
</defs>
</svg>
