<svg width="180" height="180" viewBox="0 0 180 180" fill="none" xmlns="http://www.w3.org/2000/svg">
<path d="M168.095 34.5712L94.1729 166.757C92.6462 169.486 88.7256 169.502 87.1759 166.786L11.788 34.5836C10.1005 31.6237 12.6306 28.0389 15.9842 28.638L89.9867 41.8657C90.4587 41.9501 90.9421 41.9494 91.4138 41.8635L163.868 28.6571C167.211 28.0479 169.754 31.6057 168.095 34.5712Z" fill="url(#paint0_linear_72_317)"/>
<path d="M125.237 11.2888L70.5323 22.0078C70.0952 22.0934 69.6988 22.3218 69.4057 22.6572C69.1125 22.9927 68.9392 23.416 68.9129 23.8607L65.548 80.6946C65.4693 82.0333 66.6983 83.0723 68.0045 82.7708L83.2353 79.2563C84.6607 78.9272 85.9482 80.1827 85.6551 81.6154L81.1304 103.774C80.8255 105.265 82.2256 106.54 83.6819 106.098L93.0892 103.24C94.5477 102.797 95.9489 104.076 95.6406 105.568L88.4496 140.374C87.9996 142.551 90.8954 143.738 92.1031 141.872L92.9097 140.625L137.486 51.6645C138.233 50.175 136.946 48.4768 135.309 48.7924L119.632 51.8181C118.159 52.1021 116.905 50.7302 117.321 49.2885L127.554 13.8173C127.97 12.3728 126.712 10.9997 125.237 11.2888Z" fill="url(#paint1_linear_72_317)"/>
<defs>
<linearGradient id="paint0_linear_72_317" x1="9.94712" y1="23.9133" x2="101.945" y2="148.854" gradientUnits="userSpaceOnUse">
<stop stop-color="#41D1FF"/>
<stop offset="1" stop-color="#BD34FE"/>
</linearGradient>
<linearGradient id="paint1_linear_72_317" x1="85.7349" y1="14.1986" x2="102.377" y2="128.361" gradientUnits="userSpaceOnUse">
<stop stop-color="#FFEA83"/>
<stop offset="0.0833" stop-color="#FFDD35"/>
<stop offset="1" stop-color="#FFA800"/>
</linearGradient>
</defs>
</svg>
